<?xml version="1.0" encoding="UTF-8" standalone="no"?>
<!-- Created with Inkscape (http://www.inkscape.org/) -->

<svg
   width="92.604164mm"
   height="92.604164mm"
   viewBox="0 0 92.604164 92.604164"
   version="1.1"
   id="svg5"
   xml:space="preserve"
   inkscape:version="1.2.2 (b0a8486541, 2022-12-01)"
   sodipodi:docname="logo.svg"
   xmlns:inkscape="http://www.inkscape.org/namespaces/inkscape"
   xmlns:sodipodi="http://sodipodi.sourceforge.net/DTD/sodipodi-0.dtd"
   xmlns:xlink="http://www.w3.org/1999/xlink"
   xmlns="http://www.w3.org/2000/svg"
   xmlns:svg="http://www.w3.org/2000/svg"><sodipodi:namedview
     id="namedview7"
     pagecolor="#ffffff"
     bordercolor="#666666"
     borderopacity="1.0"
     inkscape:showpageshadow="2"
     inkscape:pageopacity="0.0"
     inkscape:pagecheckerboard="0"
     inkscape:deskcolor="#d1d1d1"
     inkscape:document-units="mm"
     showgrid="false"
     inkscape:zoom="0.84096521"
     inkscape:cx="-588.01481"
     inkscape:cy="341.86908"
     inkscape:window-width="3440"
     inkscape:window-height="1371"
     inkscape:window-x="0"
     inkscape:window-y="32"
     inkscape:window-maximized="1"
     inkscape:current-layer="layer1" /><defs
     id="defs2"><linearGradient
       inkscape:collect="always"
       id="linearGradient464"><stop
         style="stop-color:#586aec;stop-opacity:1"
         offset="0"
         id="stop460" /><stop
         style="stop-color:#9937d5;stop-opacity:1"
         offset="1"
         id="stop462" /></linearGradient><linearGradient
       inkscape:collect="always"
       xlink:href="#linearGradient464"
       id="linearGradient466"
       x1="4.7622099"
       y1="6.3334908"
       x2="84.741417"
       y2="86.280479"
       gradientUnits="userSpaceOnUse"
       gradientTransform="translate(35.62851,35.129784)" /></defs><g
     inkscape:label="Layer 1"
     inkscape:groupmode="layer"
     id="layer1"
     transform="translate(-35.62851,-35.129784)"><rect
       style="fill:url(#linearGradient466);fill-opacity:1;stroke-width:1.29646"
       id="rect398"
       width="92.604164"
       height="92.604164"
       x="35.62851"
       y="35.129784"
       ry="14.999999"
       rx="14.999999" /><path
       style="fill:#ffffff;stroke-width:1"
       d="m 72.284018,112.59328 c -4.305374,-1.86595 -10.638903,-4.60088 -14.074505,-6.07761 -5.631437,-2.42056 -6.311462,-2.75241 -6.905728,-3.36993 -1.171469,-1.21731 -1.15944,-1.09459 -1.15944,-11.82927 0,-6.878768 0.04834,-9.45973 0.177181,-9.45973 0.09745,0 3.068515,1.291617 6.602367,2.870259 3.533853,1.578642 7.030075,3.134535 7.769382,3.457543 0.739307,0.323001 1.949082,0.860282 2.688389,1.193953 1.797975,0.811474 3.209422,0.921602 4.45627,0.347691 0.46279,-0.213019 1.079158,-0.629732 1.369705,-0.926029 0.290546,-0.296296 1.97981,-2.726996 3.753923,-5.401544 1.774119,-2.674555 3.262103,-4.862824 3.306643,-4.862824 0.04453,0 0.08098,8.432847 0.08098,18.739649 0,10.306812 -0.05338,18.733102 -0.118601,18.725072 -0.06524,-0.008 -3.641192,-1.54128 -7.946568,-3.40723 z M 83.512,97.275438 c 0,-10.306802 0.03317,-18.739649 0.07377,-18.739649 0.04058,0 1.613147,2.310725 3.494606,5.134942 2.8443,4.269515 3.541042,5.214562 4.134084,5.60738 1.012385,0.670574 1.664433,0.845508 2.86786,0.769409 1.073236,-0.06788 1.719348,-0.313874 6.31105,-2.402859 3.63559,-1.654001 13.05572,-5.787921 13.18916,-5.787921 0.0878,0 0.12775,3.88192 0.10049,9.765177 -0.0443,9.568453 -0.052,9.779793 -0.38064,10.490263 -0.67481,1.45893 0.34192,0.95995 -18.483331,9.07094 -2.087457,0.89939 -5.454749,2.35452 -7.482877,3.23362 -2.028128,0.87909 -3.718258,1.59836 -3.755835,1.59836 -0.03759,0 -0.06834,-8.43285 -0.06834,-18.739662 z M 64.851415,84.850542 c -4.873219,-2.172423 -8.70869,-3.871489 -17.000108,-7.530826 -2.261409,-0.998052 -4.47363,-1.98623 -4.916045,-2.195955 -0.839301,-0.397863 -1.172365,-0.856493 -1.172365,-1.614349 0,-0.29271 1.290843,-2.362957 4.138141,-6.636709 3.635275,-5.456499 4.178161,-6.199348 4.46747,-6.112987 0.340102,0.101521 2.948731,1.13156 16.855015,6.655339 4.479331,1.779257 9.229477,3.665391 10.55588,4.191404 1.326407,0.526015 2.411645,1.016306 2.411645,1.089541 0,0.09869 -7.807495,11.942002 -9.083505,13.778915 -0.166273,0.239359 -0.876964,0.603954 -1.166393,0.598377 -0.05959,-0.0012 -2.34995,-1.001386 -5.089735,-2.22275 z m 28.54437,2.075335 c -0.483204,-0.197766 -0.566262,-0.313528 -4.771854,-6.65054 -4.646505,-7.0014 -5.017382,-7.579868 -4.92132,-7.675936 0.04023,-0.04023 1.526032,-0.648985 3.301759,-1.352773 1.775733,-0.703793 4.936521,-1.956625 7.023979,-2.784077 2.087449,-0.827453 7.282371,-2.894232 11.544251,-4.592842 4.26189,-1.698611 7.85748,-3.118479 7.99019,-3.155265 0.17091,-0.04737 1.45104,1.746887 4.3884,6.150852 3.28108,4.919313 4.1471,6.324216 4.1471,6.727649 0,0.945127 -0.53869,1.284876 -5.45584,3.440977 -2.52235,1.106013 -6.22284,2.741986 -8.22332,3.635495 -9.415861,4.205589 -14.422385,6.405107 -14.558375,6.395938 -0.08182,-0.0054 -0.291015,-0.06828 -0.46497,-0.139478 z M 54.770127,59.114246 c -1.229885,-0.494733 -2.186722,-0.943937 -2.126307,-0.998226 0.06042,-0.05429 3.276608,-1.360989 7.147098,-2.903777 3.87049,-1.542786 10.168438,-4.05552 13.995435,-5.583856 6.843709,-2.73307 6.977701,-2.778794 8.144243,-2.779275 l 1.186051,-4.75e-4 12.176821,4.868045 c 6.697252,2.677426 12.995202,5.189717 13.995442,5.582872 1.00023,0.393153 1.86943,0.760911 1.93154,0.817236 0.0621,0.05633 -0.87924,0.502816 -2.0919,0.992202 l -2.20483,0.889792 -12.260367,-4.885069 c -6.74321,-2.686801 -12.468115,-4.885083 -12.722016,-4.885083 -0.336372,0 -24.255956,9.367903 -24.847399,9.731273 -0.04821,0.02962 -1.093928,-0.350925 -2.323811,-0.845659 z"
       id="path179"
       sodipodi:nodetypes="sssssssssssssssssssssssssssssssssssssscsssssssssssscsssssscssssccsss" /></g></svg>
